<svg width="35" height="35" viewBox="0 0 35 35" fill="none" xmlns="http://www.w3.org/2000/svg">
<path d="M13.3543 30.2917V25.8194C13.3543 24.6818 14.2817 23.7575 15.4307 23.7499H19.6395C20.794 23.7499 21.7299 24.6764 21.7299 25.8194V25.8194V30.3056C21.7297 31.2714 22.5083 32.0608 23.4836 32.0834H26.2895C29.0867 32.0834 31.3542 29.8386 31.3542 27.0694V27.0694V14.3469C31.3393 13.2575 30.8226 12.2346 29.9513 11.5691L20.3551 3.91615C18.6739 2.58362 16.2841 2.58362 14.6029 3.91615L5.04883 11.583C4.17417 12.2457 3.65665 13.2704 3.64587 14.3608V27.0694C3.64587 29.8386 5.9134 32.0834 8.71054 32.0834H11.5164C12.516 32.0834 13.3263 31.2812 13.3263 30.2917V30.2917" stroke="#F9F9F9" stroke-width="1.5" stroke-linecap="round" stroke-linejoin="round"/>
</svg>
