<svg width="145" height="24" viewBox="0 0 145 24" fill="none" xmlns="http://www.w3.org/2000/svg">
<path d="M11.489 0.834866L8.34735 7.04035L1.31828 8.03866C0.0577565 8.21677 -0.447413 9.73064 0.466703 10.5977L5.55208 15.4252L4.34929 22.2447C4.13279 23.4774 5.46548 24.4007 6.58166 23.8242L12.8698 20.6043L19.158 23.8242C20.2742 24.396 21.6069 23.4774 21.3904 22.2447L20.1876 15.4252L25.2729 10.5977C26.1871 9.73064 25.6819 8.21677 24.4214 8.03866L17.3923 7.04035L14.2506 0.834866C13.6877 -0.271247 12.0567 -0.285308 11.489 0.834866Z" fill="#F9F9F9" fill-opacity="0.5"/>
<path d="M41.3041 0.834866L38.1624 7.04035L31.1333 8.03866C29.8728 8.21677 29.3677 9.73064 30.2818 10.5977L35.3671 15.4252L34.1644 22.2447C33.9479 23.4774 35.2805 24.4007 36.3967 23.8242L42.6849 20.6043L48.973 23.8242C50.0892 24.396 51.4219 23.4774 51.2054 22.2447L50.0026 15.4252L55.088 10.5977C56.0021 9.73064 55.497 8.21677 54.2364 8.03866L47.2074 7.04035L44.0657 0.834866C43.5028 -0.271247 41.8718 -0.285308 41.3041 0.834866Z" fill="#F9F9F9" fill-opacity="0.5"/>
<path d="M71.1192 0.834866L67.9775 7.04035L60.9485 8.03866C59.6879 8.21677 59.1828 9.73064 60.0969 10.5977L65.1823 15.4252L63.9795 22.2447C63.763 23.4774 65.0957 24.4007 66.2119 23.8242L72.5 20.6043L78.7882 23.8242C79.9044 24.396 81.237 23.4774 81.0205 22.2447L79.8178 15.4252L84.9031 10.5977C85.8172 9.73064 85.3121 8.21677 84.0516 8.03866L77.0225 7.04035L73.8808 0.834866C73.3179 -0.271247 71.6869 -0.285308 71.1192 0.834866Z" fill="#F9F9F9" fill-opacity="0.5"/>
<path d="M100.934 0.834866L97.7926 7.04035L90.7635 8.03866C89.503 8.21677 88.9978 9.73064 89.912 10.5977L94.9973 15.4252L93.7945 22.2447C93.578 23.4774 94.9107 24.4007 96.0269 23.8242L102.315 20.6043L108.603 23.8242C109.719 24.396 111.052 23.4774 110.836 22.2447L109.633 15.4252L114.718 10.5977C115.632 9.73064 115.127 8.21677 113.867 8.03866L106.838 7.04035L103.696 0.834866C103.133 -0.271247 101.502 -0.285308 100.934 0.834866Z" fill="#F9F9F9" fill-opacity="0.5"/>
<path d="M130.749 0.834866L127.608 7.04035L120.579 8.03866C119.318 8.21677 118.813 9.73064 119.727 10.5977L124.812 15.4252L123.61 22.2447C123.393 23.4774 124.726 24.4007 125.842 23.8242L132.13 20.6043L138.418 23.8242C139.535 24.396 140.867 23.4774 140.651 22.2447L139.448 15.4252L144.533 10.5977C145.447 9.73064 144.942 8.21677 143.682 8.03866L136.653 7.04035L133.511 0.834866C132.948 -0.271247 131.317 -0.285308 130.749 0.834866Z" fill="#F9F9F9" fill-opacity="0.5"/>
<mask id="mask0_6_762" style="mask-type:alpha" maskUnits="userSpaceOnUse" x="0" y="0" width="145" height="24">
<path d="M11.489 0.834866L8.34735 7.04035L1.31828 8.03866C0.0577565 8.21677 -0.447413 9.73064 0.466703 10.5977L5.55208 15.4252L4.34929 22.2447C4.13279 23.4774 5.46548 24.4007 6.58166 23.8242L12.8698 20.6043L19.158 23.8242C20.2742 24.396 21.6069 23.4774 21.3904 22.2447L20.1876 15.4252L25.2729 10.5977C26.1871 9.73064 25.6819 8.21677 24.4214 8.03866L17.3923 7.04035L14.2506 0.834866C13.6877 -0.271247 12.0567 -0.285308 11.489 0.834866Z" fill="#C4C4C4"/>
<path d="M41.3041 0.834866L38.1624 7.04035L31.1333 8.03866C29.8728 8.21677 29.3677 9.73064 30.2818 10.5977L35.3671 15.4252L34.1644 22.2447C33.9479 23.4774 35.2805 24.4007 36.3967 23.8242L42.6849 20.6043L48.973 23.8242C50.0892 24.396 51.4219 23.4774 51.2054 22.2447L50.0026 15.4252L55.088 10.5977C56.0021 9.73064 55.497 8.21677 54.2364 8.03866L47.2074 7.04035L44.0657 0.834866C43.5028 -0.271247 41.8718 -0.285308 41.3041 0.834866Z" fill="#C4C4C4"/>
<path d="M71.1192 0.834866L67.9775 7.04035L60.9485 8.03866C59.6879 8.21677 59.1828 9.73064 60.0969 10.5977L65.1823 15.4252L63.9795 22.2447C63.763 23.4774 65.0957 24.4007 66.2119 23.8242L72.5 20.6043L78.7882 23.8242C79.9044 24.396 81.237 23.4774 81.0205 22.2447L79.8178 15.4252L84.9031 10.5977C85.8172 9.73064 85.3121 8.21677 84.0516 8.03866L77.0225 7.04035L73.8808 0.834866C73.3179 -0.271247 71.6869 -0.285308 71.1192 0.834866Z" fill="#C4C4C4"/>
<path d="M100.934 0.834866L97.7926 7.04035L90.7635 8.03866C89.503 8.21677 88.9978 9.73064 89.912 10.5977L94.9973 15.4252L93.7945 22.2447C93.578 23.4774 94.9107 24.4007 96.0269 23.8242L102.315 20.6043L108.603 23.8242C109.719 24.396 111.052 23.4774 110.836 22.2447L109.633 15.4252L114.718 10.5977C115.632 9.73064 115.127 8.21677 113.867 8.03866L106.838 7.04035L103.696 0.834866C103.133 -0.271247 101.502 -0.285308 100.934 0.834866Z" fill="#C4C4C4"/>
<path d="M130.749 0.834866L127.608 7.04035L120.579 8.03866C119.318 8.21677 118.813 9.73064 119.727 10.5977L124.812 15.4252L123.61 22.2447C123.393 23.4774 124.726 24.4007 125.842 23.8242L132.13 20.6043L138.418 23.8242C139.535 24.396 140.867 23.4774 140.651 22.2447L139.448 15.4252L144.533 10.5977C145.447 9.73064 144.942 8.21677 143.682 8.03866L136.653 7.04035L133.511 0.834866C132.948 -0.271247 131.317 -0.285308 130.749 0.834866Z" fill="#C4C4C4"/>
</mask>
<g mask="url(#mask0_6_762)">
<rect x="-4" y="-3" width="136" height="31" fill="#FF4C29"/>
</g>
</svg>
